<svg version="1" xmlns="http://www.w3.org/2000/svg" width="1208" height="1208" viewBox="0 0 906.000000 906.000000"><path d="M450.5 3.7c-9.5 1.7-14.1 3.7-20.4 8.9-8.8 7.2-13.3 14.1-16.5 25.1-1.3 4.5-1.4 14.9-.1 16.1.2.2 4.5-1.9 9.7-4.6 16.9-9.1 26.4-11.6 42.8-11.4 11.3.1 13.8.5 25 4 4.7 1.4 9.5 2.9 10.8 3.3 2.2.7 2.3.6 1.7-4.7-1.3-13.7-12.4-27.9-26.8-34.2-8.2-3.6-16.1-4.4-26.2-2.5zM586.5 8.7c-5.1.8-16.8 6.8-21.7 11.2-5.9 5.3-11.2 13.2-13.1 19.9-1.5 4.9-1.4 8.2.2 8.2.3 0 3.5-.9 7.1-2 25.1-7.7 53.3-2.5 76.1 14 3.8 2.7 4.4 2.9 5.2 1.4.9-1.6 1.2-14.5.4-17.4-.2-.8-.8-2.8-1.2-4.5-1.2-4.3-6.8-13.5-10.6-17.4-8.3-8.4-18.2-12.7-31-13.4-4.6-.3-9.7-.3-11.4 0zM321.3 36c-20.5 6.7-33.5 24.8-32.7 45.6.1 4.3.5 8.6.7 9.4.8 2.8 2.8 7.4 3.9 8.7 1.1 1.4 1.8.8 9.6-8.8 2-2.6 5.3-5.8 7.2-7.3 1.9-1.5 5.5-4.2 8-6.1 11.9-9.1 28.7-14.5 47.5-15 4.4-.1 8.5-.3 9.2-.4 2-.2-1.8-8-6.5-13.2C363.4 43.5 355 38.2 348 36c-6.7-2-20.5-2-26.7 0zM712.9 53.5c-6.1 1.6-15.6 6.8-19.9 10.8-4.3 3.9-8.9 10.9-9.3 13.9-.2 2.1.2 2.1 9.8 2.4 5.5.1 11.1.5 12.5.8 3.9.9 7.3 1.6 10 2.1 4.8.9 13.6 4.9 22 10.1 7.9 4.8 15.2 11.6 23.7 21.9l3.2 3.9 2.7-5.8c2.1-4.7 2.7-7.4 2.8-14 .1-9.9-.4-12.3-4.2-20.7C759 63 744.1 53.2 726 52.5c-4.7-.1-10.6.3-13.1 1zM461.5 75.9c-9.9 2.1-18.5 3.9-19.1 4.2-.7.3.5 7.5 3.7 21.7 2.6 11.7 4.9 21.5 5.1 21.8.3.2 7.5-1 16.1-2.7l15.6-3.2V94.9c0-21.1-.1-22.9-1.7-22.8-.9.1-9.8 1.8-19.7 3.8zM555 72.7c-1.9.2-9.8.4-17.5.5l-14 .3.2 3c.1 1.6.4 5.5.7 8.5.9 7.8 2.2 23.6 2.5 29 .1 1.7 0 1.7 12.7 2.3 5 .2 9.6.7 10.2 1.1.7.4 1.2.3 1.2-.3 0-.7.8-.7 2.5-.1 2.5 1 5.4-.7 5.6-3.3 1.3-14.4 2.1-20.2 3-21.8.6-1.2.5-2-.1-2.4-.6-.4-.7-1.2-.3-1.8.9-1.4.9-1.8 1.7-9.1.5-5.3.5-5.4-2.2-5.7-1.5-.2-4.3-.3-6.2-.2zM608.5 98.2c-1 8.3-1.8 17.4-1.9 20.2l-.1 5 13.3 2.7 13.3 2.6.8-2.1c.4-1.1 3.4-9.2 6.6-17.9 3.1-8.7 5.6-16 5.3-16.2-.3-.4-26.2-7.3-32.9-8.9l-2.6-.6-1.8 15.2zM384.9 93.7l-20.5 7.6 8.7 22.6c5.6 14.4 9.2 22.6 10.1 22.5.7-.1 8.4-3 17.1-6.5 10.8-4.3 15.7-6.8 15.7-7.9-.1-1.8-9.7-45-10.2-45.5-.1-.1-9.6 3.1-20.9 7.2zM685.1 126.6c-2.8 9.7-5 17.8-4.9 17.9 1.7 1.3 21 11.6 21.3 11.3.7-.8 16.5-32.9 16.5-33.6 0-.8-25.3-13.2-26.9-13.2-.4 0-3.1 7.9-6 17.6zM207.8 111.6c-.2.1-1.9.6-3.8.9-14.5 2.4-31.7 19.5-34.6 34.5-2.2 11.2-.2 24.5 5.1 33.5 2.3 3.9 6.2 8.2 6.8 7.4.2-.2 1.8-3.7 3.6-7.8 11-25.1 29.9-41.1 58.4-49.6 3.1-.9 5.7-2 5.7-2.3 0-1.6-6.9-8.1-11.1-10.5-7-4-13.8-6-22.1-6.2-4.2-.2-7.8-.1-8 .1zM311.8 121.7c-11.5 5.9-20.8 11.1-20.8 11.5 0 .4 7.7 10.7 17.1 22.8 15.5 19.9 17.3 21.8 19.1 20.9 2.2-1.2 25.1-15 25.6-15.4.7-.6-18.4-50.5-19.3-50.5-.5.1-10.3 4.9-21.7 10.7zM819 128.6c-9.3 2.5-18 7.6-18 10.7 0 .7 2.8 2.5 6.2 4 8.2 3.7 19 11 25.4 17.2 5.9 5.7 13.8 16.8 16.6 23.5 1.1 2.5 2.3 5.4 2.8 6.5.9 1.8 5 16.8 5 18 0 1.5 2.9 0 6.3-3.1 4.4-4 9.9-13.7 11.7-20.6 1.1-4.2.9-18.5-.3-22.8-.2-.8-.7-2.9-1.2-4.5-2.1-7.8-14.2-21.3-23.1-25.5-9.6-4.7-21.4-5.9-31.4-3.4zM252.9 162c-11.2 7.7-20.5 14.4-20.8 15.1-.3 1.1 39.6 41.9 41.1 41.9.6 0 20.5-16 26.1-21 .5-.4-5.2-11.8-12.6-25.4L273.3 148l-20.4 14zM756.6 164.3c-5.5 8.9-10.1 16.5-10.3 16.9-.2.4 3.7 3.4 8.6 6.7l9 6.1 6.8-7.8c12-13.7 16.3-18.9 16.3-19.9 0-.7-13.1-12.4-19-17-1.3-1-3.1 1.3-11.4 15zM516 161.7c-9.1.9-24.5 3.6-30.2 5.2-18.5 5.3-69.4 26.3-95.8 39.5-32.8 16.4-53.6 30.1-76.5 50.1-62.1 54.5-87.9 79-105.4 100.5-5.2 6.3-13.4 15.8-18.2 21-5.4 5.7-10.3 12.1-12.4 16.2-4.6 8.8-16.4 44.2-28.4 85.8-.9 2.9-1 2-.8-5.4l.2-9-33-8.8C97.4 452 81.9 448 81.1 448c-.8 0-1.1.7-.8 1.9.4 1.8-.3 6.2-7.8 49.6-8.5 49.2-9.5 56.6-10 68.5-.3 6.9-.7 19.1-1 27.2L61 610h8.5c10 0 9.3-.9 13.4 15.3 1.7 6.3 9.1 28.2 16.7 48.8 18.9 51.6 19.2 52.5 20.4 58.3 1.9 9.1 14.8 81.9 15.9 89.6.6 4.1 2.6 22.6 4.6 41 4.1 38.7 3.9 37.4 6.6 40.1 1.8 1.8 2.9 2 6.8 1.5 2.5-.3 19.7-1.9 38.1-3.6 18.4-1.6 35.3-3.2 37.5-3.4 2.2-.3 4.3-.5 4.7-.5.4-.1 1.4-1.1 2.2-2.4 1.4-2 1.2-4.5-2.3-26.2-4.7-29.4-5.4-34.1-4.8-33.5.4.5 13.2 25 20.1 38.6 2.8 5.5 4.4 7.5 6.9 8.5 2.5 1.1 10.2 1.4 33.7 1.3 30.4-.1 30.7-.1 66-4.7 19.5-2.6 40.9-5.4 47.5-6.2 32.3-4.3 30.7-3.8 101-25.5 37.4-11.5 69.2-21.3 70.6-21.9 1.5-.5 8.3-6.7 15.1-13.8 31-32.1 36.8-38.3 36.8-39.6 0-.8-.8-2.5-1.8-3.7-1.5-1.8-8.5-3.9-38.2-11.5l-36.4-9.4-60.1 3-60.1 3.1-70.9-16.7c-39.1-9.1-71.3-16.9-71.6-17.3-.4-.4-8.4-39.7-18-87.3l-17.4-86.7 1.9-5.3c6.9-19.4 15.1-35.2 21.1-40.9 1.7-1.6 16.2-7.8 39.8-17l37.2-14.6 3.9-7.6c2.9-5.8 6.6-10.6 15-19.4l11.1-11.7 26.5-3.8c37-5.3 34.2-5.5 48 2.3 6.3 3.6 14.2 8.2 17.5 10.2 8.5 5.1 9.4 4.9 15.3-3.7 2.7-3.9 12.2-17.5 21.1-30.1 8.8-12.6 16.1-23.7 16.1-24.5 0-.9-1.5-10.2-3.4-20.6-1.9-10.5-4.2-24.6-5.2-31.5-2-13.5-3.6-16.8-7.7-15.5-1.2.4-33.2 4.4-71 9-43.4 5.3-69.4 8.8-70.5 9.7-7.1 5.4-14.1 12.2-13.5 13.1.3.5.1.7-.5.3-.6-.3-9 6.4-18.9 15.1-15.7 13.8-18.3 16.6-22.1 23.2-2.4 4.2-4.7 7.8-5.2 8.1-.4.3-4 4.5-7.8 9.4-3.9 4.9-7.9 9.4-8.9 10.1-3.6 2.4-6.9 2.6-9.6.4-3.5-2.6-3-3.7 9-21.3 10.1-14.8 17-22.3 71.2-78.1l22.4-23 28.6-17.4c39.7-24.1 144.2-86.2 145.4-86.4.6-.1 5.4 7.2 10.8 16.3 8.6 14.5 10.3 16.7 13.6 18.1 2.1.9 34.8 15 72.8 31.3 37.9 16.4 73.4 32.3 79 35.4 15 8.5 27.7 21.2 47.5 47.8 8.6 11.6 16.4 21.4 17.3 21.7 1.1.4 1.4.2 1.1-.7-.5-1.2 3.8-3.2 5.9-2.8 1.7.4.3-3.2-6.2-16.4-13.5-27.1-39-63.7-56.2-80.4-14.7-14.3-91.8-59.9-122.4-72.3-13.5-5.6-16.9-7-24.8-10.6-9.5-4.3-21.4-7.9-30-9.1-10.2-1.3-21.3-1.3-23.9.1-1.5.8-1.9.8-1.4 0 .7-1.1-17.4-1.3-26.4-.4zM202.2 205.7c-14.3 15.5-23.2 25.6-23.2 26.2.1.3 12 8.8 26.7 18.8l26.5 18.2 10.4-13.6 10.4-13.6-2.8-3.1c-1.5-1.7-10.5-12.3-20.1-23.4-9.5-11.1-17.5-20.2-17.6-20.2-.2 0-4.8 4.8-10.3 10.7zM822.4 223.1l-12 15.1 6.2 6c4.2 4 6.7 5.7 7.6 5.2 2.2-1.3 25.6-20.3 26.2-21.2.5-.9-13.7-19.4-15.3-20-.4-.1-6.1 6.6-12.7 14.9zM123.9 216.1c-.7.4-1.8.5-2.4.3-2.2-.9-14.3 4.4-19.7 8.5-6.4 4.9-9.6 8.8-13.7 16.8-8.8 17.5-5.2 38.6 9 52.5 5.2 5.1 9.3 7.7 10.5 6.6.2-.3.6-2.9 1-5.9.3-3 .7-6.8.9-8.5.2-1.7 1.3-6.7 2.5-11 5.2-18.6 17.5-35.8 33-46.1 5.8-3.9 8.5-6.2 7.9-6.7-2.3-1.9-10.3-5.5-13.4-6.1-5.6-1.1-14.2-1.3-15.6-.4zM158.9 257.2c-1.5 2.4-7.3 11.7-13.1 20.8-5.7 9.1-10.7 17.1-11.2 17.8-.5.8 1.5 2.2 6.6 4.6 36.1 16.6 54 24.7 54.3 24.4.1-.2 3.3-6.2 7-13.3 3.8-7.2 7.4-13.9 8.2-15 .7-1.1 1.3-2.5 1.3-3.1 0-1.3-48.1-40.4-49.6-40.4-.5 0-2.1 1.9-3.5 4.2z"/><path d="M644.3 313c-9.5 2.6-18.4 5.1-19.8 5.4-1.4.4-3 1.7-3.4 2.9-.5 1.2-4.1 9.4-8 18.3-5.4 12.3-7.1 17-6.9 20.2.1 2.4.5 3.9 1.1 3.5.6-.4.7-.1.2.6-1.2 2.1-1.5 8.2-.4 7.5.7-.4.7.1 0 1.5-.9 1.6-.9 2.1.1 2.1.9 0 .9.3-.2 1-1.3.9-1.3 1 0 1 .9 0 1.1.3.5.8-.7.4-1.2 6.4-1.3 14.9l-.1 14.1 15.5 20.4c18.1 23.6 20 25.8 22.9 25.8 1.4 0 4.8-3.1 10.4-9.4 6.2-7.1 10-10.5 15.3-13.5 3.8-2.3 7.5-4.1 8.1-4.1.7 0 13.5 1.6 28.4 3.7l27.3 3.7 27.5 27.4c28.4 28.1 34.3 33.2 37.9 33.2 1.5 0 6.6-5.3 17.1-17.6 8.3-9.7 15.4-18.3 15.9-19.1.5-1 .3-2.5-.7-4.2-.8-1.4-4.2-9.4-7.6-17.6-3.4-8.3-6.7-15.9-7.2-17-.6-1.1-8.5-8.4-17.4-16.2-14.4-12.6-19.5-16.2-43.2-30.9-14.7-9.2-28.1-17.2-29.8-17.9-1.6-.7-11.5-2.5-22-4l-19-2.8-15 4.8c-8.2 2.6-16 5.4-17.3 6.2-1.3.8-3 1.2-3.8.9-2.3-.9-1.7-6 1-8.5 3-2.8 15.9-7.1 31.6-10.7 11-2.5 12-2.6 24-1.5 6.9.6 16.6 1.3 21.5 1.6 5 .3 11.9 1.1 15.3 1.7 5.9 1 6.5.9 8.4-1 3.2-3.2 1.8-6.7-3.4-8.6-8.5-3.1-81.9-23.6-84-23.5-1.3.1-10.1 2.3-19.5 4.9zM121.1 321.2c-1.6 3.5-5.2 11.2-8.1 17.3-9 18.7-12 25.8-11.5 26.3.4.4 36.1 10.7 57.2 16.5l9.1 2.5 4.7-10.6c2.6-5.9 5.8-13 7.1-15.8 4-9 5.8-7.1-25.6-25.6-15.7-9.2-28.9-16.8-29.3-16.8-.4 0-2.1 2.8-3.6 6.2zM71.7 328.6c-.1.1-2.2.5-4.7.9-13.8 2-28.7 14.5-34.2 28.7-2.7 7.2-3.4 20.7-1.5 28.5 4.3 16.4 19.4 30.9 34.5 32.8 2.8.3 5.2.3 5.2-.2 0-.4-1.1-4.2-2.4-8.4-1.4-4.2-2.8-9.6-3.1-12-1.4-9.8-.7-31.1 1.2-34.1.2-.5.7-2 .9-3.5.8-4.5 6.4-16.4 11.1-23.7 2.4-3.7 4.2-7.1 3.8-7.4-.5-.6-10.3-2-10.8-1.6zM89.3 410.2c-3.9 15-7 27.4-6.9 27.5.6.7 62.8 8.3 67.5 8.3 2.9 0 2.9 0 5.6-11.8 1.5-6.4 3.5-15.1 4.5-19.2s1.5-7.8 1.1-8.1C160.2 406 99 383 97.6 383c-.8 0-3.9 10.4-8.3 27.2zM528.8 474.8l-25.7 11.6-1.9 4.5c-5.1 12.2-17.4 48.2-16.9 49.5 1.3 3.4 5.2 4.6 17.3 5.2 13.1.6 14.2 1.1 17.5 7.6 2.2 4.3 2.4 8.1.7 9.6-.7.5-4.9 2.3-9.4 3.8-7.3 2.6-10 4.4-28.6 19.4l-20.5 16.5-1.7 8c-2.2 11-2.2 16.5.2 16.5 1 0 2.5-.6 3.4-1.3 1.8-1.3 8.3-10.9 11-16.2 1.2-2.3 6.7-6.9 17-14.3 8.4-6 16.4-11.5 17.7-12.2 1.6-.8 14.4-1.7 39.5-2.7l37.1-1.5 25.7 12.7 25.7 12.8 9.8 13.4c9.8 13.3 13.4 16.4 15.4 13.2 2.1-3.3.1-16.7-3.9-26-1.8-4.2-4.4-6.5-24.5-21.7-17.7-13.5-23.9-18.8-29.2-25.1-3.6-4.5-7.4-8.5-8.3-9-2.2-1.3-2-7 .4-8.8 2.7-2.1 18.1-1.1 25.8 1.6 7.4 2.6 10.6 2.7 10.6.3 0-.9-1.2-9.6-2.6-19.2l-2.7-17.5-7-8.3c-3.9-4.6-8.2-8.9-9.7-9.7-2.8-1.4-53.7-23.5-55.5-24-.5-.2-12.6 4.9-26.7 11.3z"/><path d="M503.4 614.9c-14.9 4-20 7.8-25 18.2-5.2 10.6-5.2 10.9-.7 10.9 2.1 0 9.2-.5 15.8-1 16.9-1.3 44.1-2.5 56.5-2.5 23.7 0 56.9 2.7 72.9 6 16.2 3.3 15.5 3.3 14.8-1.4-1-8.1-7.2-12.3-27.6-19.1-29.9-9.8-42.9-12-74.6-12.6-22.4-.4-25.7-.2-32.1 1.5z"/></svg>